<svg xmlns="http://www.w3.org/2000/svg" width="785.313" height="679.7"><defs><filter id="b" color-interpolation-filters="sRGB"><feGaussianBlur result="result1" stdDeviation="3"/><feBlend in2="result1" result="result5" mode="multiply" in="result1"/><feGaussianBlur in="result5" result="result6" stdDeviation="1"/><feComposite in2="result5" result="result8" in="result6" operator="xor"/><feComposite in2="result8" in="result6" result="fbSourceGraphic" operator="xor"/><feSpecularLighting in="fbSourceGraphic" result="result1" lighting-color="#fff" surfaceScale="2" specularConstant="2.2" specularExponent="55"><fePointLight x="-5000" y="-10000" z="20000"/></feSpecularLighting><feComposite in2="fbSourceGraphic" in="result1" result="result2" operator="in"/><feComposite in2="result2" in="fbSourceGraphic" result="result4" operator="arithmetic" k2="2" k3="1"/><feComposite in2="result4" operator="in" result="result91"/><feBlend in2="result91" mode="darken" result="fbSourceGraphic"/><feColorMatrix result="fbSourceGraphicAlpha" in="fbSourceGraphic" values="0 0 0 -1 0 0 0 0 -1 0 0 0 0 -1 0 0 0 0 1 0"/><feTurbulence numOctaves="5" type="fractalNoise" baseFrequency=".08"/><feGaussianBlur stdDeviation=".5" result="result91"/><feDisplacementMap in2="result91" scale="20" yChannelSelector="G" xChannelSelector="R" in="fbSourceGraphic" result="result1"/><feComposite in2="fbSourceGraphic" in="result1" operator="atop"/></filter><filter id="c" height="1.4" y="-.2" width="1.4" x="-.2" color-interpolation-filters="sRGB"><feTurbulence baseFrequency=".05" numOctaves="5" type="fractalNoise" result="result91"/><feDisplacementMap in2="result91" scale="25" result="result5" xChannelSelector="R" in="SourceGraphic"/><feComposite in2="result5" in="SourceGraphic" operator="atop" result="fbSourceGraphic"/><feColorMatrix result="fbSourceGraphicAlpha" in="fbSourceGraphic" values="0 0 0 -1 0 0 0 0 -1 0 0 0 0 -1 0 0 0 0 1 0"/><feTurbulence type="fractalNoise" numOctaves="5" baseFrequency=".02" result="result1"/><feComposite in2="result1" operator="in" result="result2" in="fbSourceGraphic"/><feColorMatrix result="result3" values="1 0 0 0 0 0 1 0 0 0 0 0 1 0 0 0 0 0 3 -1" in="result2"/></filter><filter id="a" color-interpolation-filters="sRGB"><feGaussianBlur stdDeviation="10.978"/></filter></defs><g transform="translate(24.094 -151.025)"><path d="M177.797 444.906l-103.375 179.031 35.125 60.844 35.125 60.844h206.25v-181.563h-32.281l16.375-28.375-157.219-90.781zm379.594-3.469l-157.25 90.781 18.375 31.844h-39.906v181.563h213.875l35.125-60.844 35.125-60.844-105.344-182.5zm-259.063-205.313l-106.031 183.656 157.219 90.781 19.063-33 18.875 32.688 157.25-90.781-105.875-183.344h-140.5zm-82.719 210.906c-34.073 58.969-68.146 117.938-102.219 176.906 16.896 29.229 33.792 58.458 50.687 87.687h409.031c16.896-29.229 33.792-58.458 50.687-87.687-68.142-117.952-136.309-235.889-204.5-353.813h-101.406c-34.094 58.969-68.188 117.938-102.281 176.906zm154.688-34.656c35.572 61.927 71.088 123.975 107.187 185.688h-217.875c36.848-62.649 72.71-125.73 108.969-188.688l1.719 3z" fill="#fff" filter="url(#a)"/><path d="M215.594 447.031c-34.073 58.969-68.146 117.938-102.219 176.906 16.896 29.229 33.792 58.458 50.688 87.688h409.031c16.896-29.229 33.792-58.458 50.688-87.688-68.142-117.952-136.309-235.889-204.5-353.813h-101.406c-34.094 58.969-68.188 117.938-102.281 176.906zm154.688-34.656c35.572 61.927 71.088 123.975 107.188 185.688h-217.875c36.848-62.649 72.71-125.73 108.969-188.688l1.719 3z" stroke="#000" stroke-width="3"/><g filter="url(#b)" fill="#28170b"><path d="M298.313 236.125l-106.031 183.656 157.219 90.781 19.063-33 18.875 32.688 157.25-90.781-105.875-183.344h-140.5z"/><path d="M557.375 441.438l-157.25 90.781 18.375 31.844h-39.906v181.563h213.875l35.125-60.844 35.125-60.844-105.344-182.5z"/><path d="M177.781 444.906l-103.375 179.031 35.125 60.844 35.125 60.844h206.25v-181.563h-32.281l16.375-28.375-157.219-90.781z"/></g><g fill="#520" filter="url(#c)"><path d="M208.594 415.469l136.594 78.781c7.79-13.563 15.591-27.121 23.375-40.688 7.723 13.462 15.459 26.916 23.188 40.375l136.625-78.781-96.5-167.031h-126.625c-32.219 55.781-64.438 111.563-96.656 167.344z"/><path d="M416.438 536.531c7.599 13.192 15.194 26.386 22.875 39.531h-48.719v157.563h195l63.438-109.688-95.969-166.188-136.625 78.781z"/><path d="M88.094 623.938l63.438 109.688h187.375v-157.563h-41.094c7.015-11.988 13.954-24.02 20.875-36.063l-136.594-78.781-94 162.719z"/></g><path d="M323.445 430.803l-4.102-18.555-.195-10.547c-1.563-9.115-2.995-18.164-4.297-27.148l-2.148-16.992 1.367-3.711-3.125-11.719.977-5.469-4.297-21.875v-13.867l5.273 1.172 13.477-3.516 3.32 13.477 5.078 54.883 2.148 4.883 8.789 58.008c2.083-1.042 3.125-2.344 3.125-3.906l-1.367-24.023 3.711-12.695 10.156-2.93.195 1.758 3.32-.391-.586 10.547 2.148 3.125 2.539 5.078-.781 22.461-15.43 15.82c-7.162 1.172-16.927-3.451-29.297-13.867zm17.188 14.648l-15.625-14.648-1.758-22.656 1.953-5.078 1.953-3.32-.977-10.547 3.32.195v-1.758l9.766 2.539 4.297 12.305-.195 24.219c0 1.563 1.042 2.799 3.125 3.711l5.664-58.398 1.953-5.078 2.148-55.078 2.539-13.672 13.086 2.734 5.078-1.367.781 13.672-3.32 22.266 1.367 5.469-2.539 11.719 1.563 3.711-1.172 16.992c-.912 8.984-3.255 18.685-7.031 29.102l4.297 8.984-2.93 18.555c-11.328 11.068-20.443 16.211-27.344 15.43zm34.57-14.648l-4.102-18.555-.195-10.547c-1.563-9.115-2.995-18.164-4.297-27.148l-2.148-16.992 1.367-3.711-3.125-11.719.977-5.469-4.492-21.875.195-13.867 5.273 1.172 13.477-3.516 3.32 13.477 5.078 54.883 2.148 4.883 8.789 58.008c2.083-1.042 3.125-2.344 3.125-3.906l-1.367-24.023 3.711-12.695 10.156-2.93.195 1.758 3.32-.391-.586 10.547 2.148 3.125 2.539 5.078-.781 22.461-15.43 15.82c-7.162 1.172-16.927-3.451-29.297-13.867zm17.188 14.648l-15.625-14.648-1.758-22.656 1.953-5.078 1.953-3.32-.977-10.547 3.32.195v-1.758l9.766 2.539 4.297 12.305-.195 24.219c0 1.563 1.042 2.799 3.125 3.711l5.664-58.398 1.953-5.078 2.148-55.078 2.539-13.672 13.086 2.734 5.078-1.367.781 13.672-3.32 22.266 1.367 5.469-2.539 11.719 1.563 3.711-1.172 16.992c-.912 8.984-3.255 18.685-7.031 29.102l4.297 8.984-2.93 18.555c-11.328 11.068-20.443 16.211-27.344 15.43z" font-size="400" letter-spacing="0" word-spacing="0" fill="#fff" font-family="Biohazard"/><path d="M175.284 689.232c-6.144-5.173-11.083-11.644-14.816-19.412l11.676-11.026 2.009-5.896 5.315-3.294 9.768-15.112 5.315-3.294c2.016-4.321 4.806-8.864 8.37-13.628l6.701-2.065 40.63-15.564-16.215 19.962-15.071 15.693-6.204 10.348c-1.505-.785-3.329-.559-5.472.678l-.877 4.34-13.697 19.635zm-34.5-44.131c-1.343-7.795-.927-15.928 1.248-24.401l15.863-1.04 5.413-3.125 6.351.844 17.079-5.575 6.182.942c4.255-2.005 9.286-3.708 15.094-5.106l6.553 2.757 12.907-6.55 16.032-1.137 3.428-2.656 46.99-7.283 4.768 15.289-.603 5.986-18.992 5.778-17.848 1.509-5.51 2.956-25.245 5.103-21.647 2.349-11.392 4.096c-.621-1.596-2.167-2.583-4.64-2.959l-3.597 2.754-22.889 6.449z" font-size="400" letter-spacing="0" word-spacing="0" fill="#fff" font-family="Biohazard"/><path d="M614.915 680.578c-5.62 7.13-12.405 9.377-20.355 6.741l-28.552-18.515c-7.941-4.735-15.136-10.242-21.584-16.521l-22.765-7.054-3.688-4.159-14.918-6.583-68.809-41.757.569-8.016 12.575-11.233 3.441-16.507 7.945.302c9.747 1.868 19.928 5.717 30.546 11.546l63.599 36.719 22.294 14.901 2.978 5.779c2.319 5.098 3.844 10.789 4.575 17.075l-8.993 1.123c.051 3.036.965 6.271 2.743 9.703 5.092 2.639 10.865 4.619 17.319 5.94 7.277 5.104 14.304 11.942 21.082 20.516zm-58.059-45.924l-44.114-27.499-.879 1.522-3.857-4.257-33.998-19.629c-4.528-2.314-9.072-2.907-13.631-1.781 3.868 5.541 9.191 10.644 15.969 15.309 8.436 2.315 17.603 5.578 27.501 9.789l26.387 15.234 2.166 3.28c7.334 3.182 15.486 5.859 24.456 8.031zm-19.069 11.543l-2.099-7.301-5.136 5.379z" font-size="400" letter-spacing="0" word-spacing="0" fill="#fff" font-family="Biohazard"/><g style="line-height:125%;-inkscape-font-specification:Biohazard" font-size="116.343" letter-spacing="0" word-spacing="0" fill="#fff" font-family="Biohazard"><path d="M446.166 303.172l3.528-1.556 1.897.114c1.71-.553 3.402-1.046 5.076-1.48l3.15-.674.595.711 2.256-1.232.929.563 4.133-1.582 2.481.27-.477 2.441-.055 6.365-2.58 1.289-10.079 1.306-.983.909-10.826 2.979c.081.994.261 1.506.54 1.536l4.368-.172 2.083 1.981.009 4.802-.324.057-.099 1.559-1.858-.479-.668.943-1.038 1.088-3.98-.802-2.048-7.517c.154-3.369 1.477-7.842 3.968-13.419zm-3.494 7.746l3.414-7.016 4.143-.381.81 1.011.495.977 1.937-.251-.203 1.548.315.034-.95 4.514-2.42 1.768-4.324-.562c-.28-.03-.554.432-.823 1.388l10.163 3.782.81 1.011 9.747 2.074 2.318 1.452-1.153 6.061-.013 2.399-2.486.099-3.816-1.984-1.048.532-1.968-1.414-.743.658-2.981-.878c-1.561-.601-3.178-1.884-4.851-3.851l-1.826 1.833-3.172-1.73c-1.406-5.508-1.863-9.867-1.373-13.076zm.867 16.437l3.528-1.556 1.897.114c1.71-.553 3.402-1.046 5.076-1.48l3.15-.674.595.711 2.256-1.232.929.563 4.142-1.674 2.472.361-.477 2.441-.055 6.365-2.58 1.289-10.079 1.306-.983.909-10.826 2.979c.081.994.261 1.506.54 1.536l4.368-.172 2.083 1.981.009 4.802-.324.057-.099 1.559-1.858-.479-.668.943-1.038 1.088-3.98-.802-2.048-7.517c.154-3.369 1.477-7.842 3.968-13.419zm-3.494 7.746l3.414-7.016 4.143-.381.81 1.011.495.977 1.937-.251-.203 1.548.315.034-.95 4.514-2.42 1.768-4.324-.562c-.28-.03-.554.432-.823 1.388l10.163 3.782.81 1.011 9.747 2.074 2.318 1.452-1.153 6.061-.013 2.399-2.486.099-3.816-1.984-1.048.533-1.968-1.414-.743.658-2.981-.878c-1.561-.601-3.178-1.884-4.851-3.851l-1.826 1.833-3.172-1.73c-1.406-5.508-1.863-9.867-1.373-13.076z"/><path d="M471.63 368.91c-1.15 1.475-2.33 2.455-3.537 2.94l-4.528.339-.543 8.251c-1.317 1.704-2.735 2.935-4.256 3.693l-5.157.271-4.35-1.303-4.528.339-12.206-5.481-4.082-3.767 2.155-2.259 8.035 2.535c1.554-.631 3.198-1.007 4.932-1.126l2.012-.613.54.89 11.169.382 1.169.958 1.965-3.111-23.766-2.582c.299-1.014.703-1.801 1.211-2.361l-.812-4.243.357-3.285 4.439.482 1.169.958 8.967.143 2.427 1.095 1.068-.715 5.697.619.54.89c1.551-.386 3.27-.476 5.157-.271l4.35 1.303-1.075 4.038 1.437-1.506-.268 2.464zm-1.722.552c-.263.033-.517.529-.763 1.487.269-.094.524-.589.763-1.487zm-5.884-3.132l.594.065.089-.821zm-23.945-.939c.293-.091.562-.616.808-1.574-.236.221-.505.745-.808 1.574z"/><path d="M460.916 400.155l-1.615 9.335c-1.11 1.541-2.344 2.7-3.702 3.476l-8.163-.056-2.882-1.144-1.312.688-4.753-.516c-.982-.291-1.991-1.201-3.028-2.73l-2.186.594-.505-.886.022-3.137-.257-3.167 1.357-6.962c.827-2.188 1.817-3.927 2.971-5.217l9.351.185 3.231 1.182.963-.726 4.788.52c1.292.263 2.633.932 4.026 2.007.657 1.549 1.221 3.734 1.693 6.555zm-4.442 1.826l-9.542-1.036-.829-.829-5.147.18-2.332-.992-1.268.601c-.033.735.106 1.304.416 1.707l2.243 1.813 2.545-1.293 3.8 1.151.988-.631.829.829 4.238-.278 2.332.992.673-.666z"/><path d="M452.642 436.929l.585-5.384c-1.117-2.091-2.301-3.451-3.553-4.079l-5.29 3.119c.245 2.304.634 4.47 1.168 6.498l-12.161 6.804-.215-.947-1.008.814c-.942-.656-1.534-1.182-1.774-1.578-.24-.395-.526-2.427-.859-6.095-.332-3.668.339-9.628 2.013-17.879l2.447.266-.504 7.24-.577 2.707c.038 1.605.212 2.824.522 3.658l2.519-3.327 5.569-3.088c2-.829 3.763-1.869 5.29-3.119l5.46-2.085c2.02.281 3.392.892 4.115 1.832.723.94.664 6.259-.177 15.955-1.362-.271-2.552-.708-3.571-1.311zm-.072 3.593c1.325.39 2.177 1.991 2.555 4.802-1.016-1.28-1.868-2.881-2.555-4.802z"/></g><g style="line-height:125%;-inkscape-font-specification:Biohazard" font-size="122.806" letter-spacing="0" word-spacing="0" fill="#fff" font-family="Biohazard"><path d="M144.859 584.939c3.799-1.205 7.921-2.161 12.367-2.867l2.424 2.411 2.266.438.306 1.087 4.749 2.051.306 1.087c1.536.43 2.997 1.017 4.384 1.761l-.58 1.359-2.108 8.258-5.515-3.375-3.804-3.12-3.363-1.307c.708-.298 1.021-.666.939-1.104l-1.806-.201-5.941-2.867zm28.303-6.682c3.911-.225 7.576-.095 10.995.391l-3.152 3.195.205 1.106-1.844 1.272-1.333 3.465-1.851 1.237c-.047.867-.412 1.888-1.096 3.064l-2.775 1.302.072 2.633-3.146 3.23.443.704-7.393 9.489-8.16.871-2.629-.156 1.678-3.851 3.389-3.597-.105-1.125 3.422-5.105 3.871-4.365.715-2.314c.88-.116 1.69-.421 2.431-.916l-.449-.739 2.26-4.639z"/><path d="M200.039 573.984l10.467-1.334c1.981.586 3.59 1.408 4.826 2.465l2.387 7.817-.36 3.106 1.13 1.042.872 4.701c-.017 1.028-.688 2.273-2.012 3.734l1.29 1.906-.796.756-3.361.945-3.31 1.222-7.852.849c-2.587-.116-4.744-.526-6.47-1.231l-2.605-8.992.296-3.452-1.065-.696-.879-4.736c-.105-1.315.208-2.804.94-4.465 1.459-1.105 3.627-2.318 6.502-3.638zm3.284 3.681l1.751 9.437-.638 1.048 1.735 4.863-.362 2.534 1.023 1.026c.796-.195 1.363-.503 1.701-.924l1.267-2.702-2.146-2.033.093-3.986-.971-.749.638-1.048-1.568-3.964.362-2.534-.914-.438z"/><path d="M228.197 596.792l.225-3.832-1.521-3.15 2.332-2.006c-1.96-1.591-3.154-3.169-3.583-4.734l-.564-3.042.79-.79-1.296-1.941.732-1.101-1.643-3.807.456-2.588 2.672-.174 7.082-1.636 1.253 2.27 1.011 9.932.971.749 2.829 10.202c1.114-.35 1.679-.669 1.695-.958l.016-4.401 2.317-2.647 5.272-1.3.058.311 1.71-.317-.559 2.034 1.014.42 1.078.765-1.079 4.276-8.394 4.096c-3.679.73-6.822 1.731-9.429 3.001zm11.122-2.85l-5.02 1.539-3.983-2.407-2.441-3.623.732-1.101.695-.737-1.151-1.717 1.609-.299-.058-.311 5.186-.641 3.012 1.658 1.593 4.102c.051.277.66.378 1.825.305l-1.12-10.519.638-1.048-2.62-9.633.355-2.569 6.896-.958 2.456-.778 1.354 2.252-.167 4.143 1.078.765-.514 2.276 1.02.454.564 3.042c.161 1.615-.354 3.51-1.545 5.686l2.796 1.054-.289 3.486c-5.041 3.105-9.343 4.964-12.904 5.577z"/><path d="M261.916 562.681c2.89.25 6.183.057 9.878-.582l5.221-1.577 4.078 2.354 2.541 3.605-.732 1.101-.796.756 1.245 1.664-1.71.317.058.311-5.387.678-3.106-1.605-1.593-4.102c-.118-.264-.76-.36-1.926-.286l1.013 10.503-.638 1.048 2.607 9.564-.356 2.569-7.197 1.014-2.557.796-1.354-2.252.174-4.108-1.078-.765.514-2.276-1.021-.454-.558-3.007c-.161-1.615.39-3.505 1.652-5.67l-2.897-1.036.289-3.486-1.579-3.462z"/></g><g style="line-height:125%;-inkscape-font-specification:Biohazard" font-size="132.039" letter-spacing="0" word-spacing="0" fill="#fff" font-family="Biohazard"><path d="M446.542 607.464c4.514 3.043 6.821 5.462 6.923 7.257l-4.105 4.658c-.937 1.377-2.388 2.385-4.351 3.023l.534 5.235-1.403.253-.619 3.044-8.48 11.79-4.06-1.748-7.768-5.878-8.761-4.26-1.253-2.253c-.797-2.469-.694-4.673.312-6.614l6.911-11.268 3.425-3.549 2.329.274c2.109.331 4.651 1.011 7.627 2.038l2.142 2.84c1.491.585 2.927.957 4.308 1.117.405-.961.364-2.251-.123-3.87 1.236-1.111 3.374-1.807 6.413-2.088zm-12.436 7.838l-5.797 7.415.907.556-1.422.283-3.695 6.024c-.343.862.165 2.067 1.526 3.617 2.054-.032 3.635-.575 4.743-1.627-.346-1.999-.352-4.024-.019-6.074l2.867-4.675 1.238.017c.277-1.507.16-3.352-.35-5.535zm9.068 7.83l-3.236-.83 3.564 2.557z"/><path d="M468.317 630.306l11.627 7.502.411 1.366.387 5.475-2.481 4.046-2.329-.274.325 3.54-4.32 7.043-1.403.253.411 1.366-2.414 1.901-5.032-1.973-12.699-7.789-2.556-1.939c-1.586-2.54-1.996-4.661-1.229-6.363l1.924-5.171 1.403-.253 8.27.99c3.122 1.09 5.741 1.569 7.857 1.437l3.389-3.489.496-.809-5.197-1.703.08 1.905-1.238-.017-.331.539-8.43-4.799 2.089-5.441c2.128-.454 5.792.432 10.991 2.659zm6.429 5.799c.013-.322-.482-.873-1.483-1.652.158.345.653.895 1.483 1.652zm-.219 12.568l.331-.539-.907-.556zm-12.539-3.979l-4.645 3.502-.913 3.523 3.794 1.956 1.985-3.237 1.403-.253-.742-.826 3.156-1.075z"/><path d="M513.061 648.264c4.514 3.043 6.821 5.462 6.923 7.257l-4.105 4.658c-.937 1.377-2.388 2.385-4.351 3.023l.534 5.235-1.403.253-.619 3.044-8.48 11.79-4.06-1.748-7.768-5.878-8.761-4.26-1.253-2.253c-.797-2.469-.694-4.673.312-6.614l6.911-11.268 3.425-3.549 2.329.274c2.109.331 4.651 1.011 7.627 2.038l2.142 2.84c1.491.585 2.927.957 4.308 1.117.405-.961.364-2.251-.123-3.87 1.236-1.111 3.374-1.807 6.413-2.088zm-12.436 7.838l-5.797 7.415.907.556-1.422.283-3.695 6.024c-.344.862.165 2.067 1.526 3.617 2.054-.032 3.635-.575 4.743-1.627-.346-1.999-.352-4.024-.019-6.074l2.867-4.675 1.238.017c.277-1.507.16-3.352-.35-5.535zm9.068 7.83l-3.236-.83 3.564 2.557z"/><path d="M546.522 668.788c4.514 3.043 6.821 5.462 6.923 7.257l-4.105 4.658c-.937 1.377-2.388 2.385-4.351 3.023l.534 5.235-1.403.253-.619 3.044-8.48 11.79-4.06-1.748-7.768-5.878-8.761-4.26-1.253-2.253c-.797-2.469-.694-4.673.312-6.614l6.911-11.268 3.425-3.549 2.329.274c2.109.331 4.651 1.011 7.627 2.038l2.142 2.84c1.491.585 2.927.957 4.308 1.117.405-.961.364-2.251-.123-3.87 1.236-1.111 3.374-1.807 6.413-2.088zm-12.436 7.838l-5.797 7.415.907.556-1.422.283-3.695 6.024c-.344.862.165 2.067 1.526 3.617 2.054-.032 3.635-.575 4.743-1.627-.346-1.999-.352-4.024-.019-6.074l2.867-4.675 1.238.017c.277-1.507.16-3.352-.35-5.535zm9.068 7.83l-3.236-.83 3.564 2.557z"/><path d="M557.593 686.467c4.154 1.971 8.418 4.366 12.792 7.186l.444 3.572 1.675 2.017-.487 1.021 2.726 5.054-.487 1.021c1.043 1.465 1.912 2.988 2.607 4.569l-1.45.554-7.571 4.429-2.476-6.592-1.158-5.123-2.031-3.473c.825.313 1.354.28 1.587-.099l-1.438-1.5-3.201-6.541zm29.358 16.358c3.572 2.769 6.683 5.612 9.333 8.529l-4.97-.038-.588.959-2.494-.457-3.569 1.523-2.475-.487c-.643.596-1.67 1.065-3.083 1.408l-3.327-1.133-1.763 1.97-4.989-.008-.102.845-13.042 1.363-7.732-5.485-2.189-2.085 4.138-1.545 5.456-.076.689-.897 6.531-1.15 6.41-.275 2.23-1.148c.849.576 1.768.961 2.759 1.156l.12-.875 5.193-1.682z"/></g></g></svg>