<svg xmlns="http://www.w3.org/2000/svg" width="705.975" height="611.4"><defs><filter id="b" color-interpolation-filters="sRGB"><feGaussianBlur result="result1" stdDeviation="3"/><feBlend in2="result1" result="result5" mode="multiply" in="result1"/><feGaussianBlur in="result5" result="result6" stdDeviation="1"/><feComposite in2="result5" result="result8" in="result6" operator="xor"/><feComposite in2="result8" in="result6" result="fbSourceGraphic" operator="xor"/><feSpecularLighting in="fbSourceGraphic" result="result1" lighting-color="#fff" surfaceScale="2" specularConstant="2.2" specularExponent="55"><fePointLight x="-5000" y="-10000" z="20000"/></feSpecularLighting><feComposite in2="fbSourceGraphic" in="result1" result="result2" operator="in"/><feComposite in2="result2" in="fbSourceGraphic" result="result4" operator="arithmetic" k2="2" k3="1"/><feComposite in2="result4" operator="in" result="result91"/><feBlend in2="result91" mode="darken" result="fbSourceGraphic"/><feColorMatrix result="fbSourceGraphicAlpha" in="fbSourceGraphic" values="0 0 0 -1 0 0 0 0 -1 0 0 0 0 -1 0 0 0 0 1 0"/><feTurbulence numOctaves="5" type="fractalNoise" baseFrequency=".08"/><feGaussianBlur stdDeviation=".5" result="result91"/><feDisplacementMap in2="result91" scale="20" yChannelSelector="G" xChannelSelector="R" in="fbSourceGraphic" result="result1"/><feComposite in2="fbSourceGraphic" in="result1" operator="atop"/></filter><filter id="c" height="1.4" y="-.2" width="1.4" x="-.2" color-interpolation-filters="sRGB"><feTurbulence baseFrequency=".05" numOctaves="5" type="fractalNoise" result="result91"/><feDisplacementMap in2="result91" scale="25" result="result5" xChannelSelector="R" in="SourceGraphic"/><feComposite in2="result5" in="SourceGraphic" operator="atop" result="fbSourceGraphic"/><feColorMatrix result="fbSourceGraphicAlpha" in="fbSourceGraphic" values="0 0 0 -1 0 0 0 0 -1 0 0 0 0 -1 0 0 0 0 1 0"/><feTurbulence type="fractalNoise" numOctaves="5" baseFrequency=".02" result="result1"/><feComposite in2="result1" operator="in" result="result2" in="fbSourceGraphic"/><feColorMatrix result="result3" values="1 0 0 0 0 0 1 0 0 0 0 0 1 0 0 0 0 0 3 -1" in="result2"/></filter><filter id="a" color-interpolation-filters="sRGB"><feGaussianBlur stdDeviation="10.978"/></filter></defs><g transform="translate(-15.575 -185.175)"><rect width="855.354" height="658.066" x="-2098.662" y="-757.651"/><path d="M177.797 444.906l-103.375 179.031 35.125 60.844 35.125 60.844h206.25v-181.563h-32.281l16.375-28.375-157.219-90.781zm379.594-3.469l-157.25 90.781 18.375 31.844h-39.906v181.563h213.875l35.125-60.844 35.125-60.844-105.344-182.5zm-259.063-205.313l-106.031 183.656 157.219 90.781 19.063-33 18.875 32.688 157.25-90.781-105.875-183.344h-140.5zm-82.719 210.906c-34.073 58.969-68.146 117.938-102.219 176.906 16.896 29.229 33.792 58.458 50.687 87.687h409.031c16.896-29.229 33.792-58.458 50.687-87.687-68.142-117.952-136.309-235.889-204.5-353.813h-101.406c-34.094 58.969-68.188 117.938-102.281 176.906zm154.688-34.656c35.572 61.927 71.088 123.975 107.187 185.688h-217.875c36.848-62.649 72.71-125.73 108.969-188.688l1.719 3z" fill="#fff" filter="url(#a)"/><path d="M215.594 447.031c-34.073 58.969-68.146 117.938-102.219 176.906 16.896 29.229 33.792 58.458 50.688 87.688h409.031c16.896-29.229 33.792-58.458 50.688-87.688-68.142-117.952-136.309-235.889-204.5-353.813h-101.406c-34.094 58.969-68.188 117.938-102.281 176.906zm154.688-34.656c35.572 61.927 71.088 123.975 107.188 185.688h-217.875c36.848-62.649 72.71-125.73 108.969-188.688l1.719 3z" stroke="#000" stroke-width="3"/><g filter="url(#b)" fill="#28170b"><path d="M298.313 236.125l-106.031 183.656 157.219 90.781 19.063-33 18.875 32.688 157.25-90.781-105.875-183.344h-140.5z"/><path d="M557.375 441.438l-157.25 90.781 18.375 31.844h-39.906v181.563h213.875l35.125-60.844 35.125-60.844-105.344-182.5z"/><path d="M177.781 444.906l-103.375 179.031 35.125 60.844 35.125 60.844h206.25v-181.563h-32.281l16.375-28.375-157.219-90.781z"/></g><path d="M670.126 482.755h-728.824l182.206-315.59 182.206-315.59 182.206 315.59z" transform="translate(61.758 -536.216)" fill="#f60" stroke="#000" stroke-width="3"/><path d="M297.213-562.948l-111.938 193.906-111.969 193.906 35.125 60.844 35.125 60.844h447.812l35.125-60.844 35.125-60.844-111.938-193.906-111.969-193.906h-140.5zm70.25 241.438l24.969 43.25 24.969 43.25h-99.876l24.969-43.25 24.969-43.25z" fill="#b3b3b3" stroke="#000" stroke-width="3"/><path d="M297.213-562.948l-106.031 183.656 157.219 90.781 19.063-33 18.875 32.688 157.25-90.781-105.875-183.344h-140.5z" fill="#ff2a2a"/><path d="M556.276-357.636l-157.25 90.781 18.375 31.844h-39.906v181.563h213.875l35.125-60.844 35.125-60.844-105.344-182.5z" fill="#0ff"/><path d="M176.682-354.167l-103.375 179.031 35.125 60.844 35.125 60.844h206.25v-181.563h-32.281l16.375-28.375-157.219-90.781z" fill="#f0f"/><g><path d="M-529.031 745.656c-34.073 58.969-68.146 117.938-102.219 176.906l50.688 87.687h409.031l50.688-87.687c-68.142-117.952-136.309-235.889-204.5-353.813h-101.406c-34.094 58.969-68.188 117.938-102.281 176.906zm154.688-34.656c35.572 61.927 71.088 123.975 107.188 185.688h-217.875c36.848-62.649 72.71-125.73 108.969-188.688l1.719 3z" stroke="#000" stroke-width="3" transform="translate(71.156 18.725)"/><path d="M-375.156 553.474l-106.031 183.656 157.219 90.781 19.063-33 18.875 32.688 157.25-90.781-105.875-183.344h-140.5z" fill="#28170b"/><path d="M-116.094 758.787l-157.25 90.781 18.375 31.844h-39.906v181.562h213.875l35.125-60.844 35.125-60.844-105.344-182.5z" fill="#28170b"/><path d="M-495.687 762.256l-103.375 179.031 35.125 60.844 35.125 60.844h206.25v-181.562h-32.281l16.375-28.375-157.219-90.781z" fill="#28170b"/></g><g fill="#520" filter="url(#c)"><path d="M208.594 415.469l136.594 78.781c7.79-13.563 15.591-27.121 23.375-40.688 7.723 13.462 15.459 26.916 23.188 40.375l136.625-78.781-96.5-167.031h-126.625c-32.219 55.781-64.438 111.563-96.656 167.344z"/><path d="M416.438 536.531c7.599 13.192 15.194 26.386 22.875 39.531h-48.719v157.563h195l63.438-109.688-95.969-166.188-136.625 78.781z"/><path d="M88.094 623.938l63.438 109.688h187.375v-157.563h-41.094c7.015-11.988 13.954-24.02 20.875-36.063l-136.594-78.781-94 162.719z"/></g><text style="line-height:125%;-inkscape-font-specification:Biohazard" x="307.625" y="446.428" font-size="400" letter-spacing="0" word-spacing="0" fill="#fff" font-family="Biohazard"><tspan x="307.625" y="446.428">W</tspan></text><text y="-41.449" x="-684.534" style="line-height:125%;-inkscape-font-specification:Biohazard" transform="matrix(-.5 -.866 .866 -.5 0 0)" font-size="400" letter-spacing="0" word-spacing="0" fill="#fff" font-family="Biohazard"><tspan y="-41.449" x="-684.534">Y</tspan></text><text y="-669.891" x="247.956" style="line-height:125%;-inkscape-font-specification:Biohazard" transform="matrix(-.5 .866 -.866 -.5 0 0)" font-size="400" letter-spacing="0" word-spacing="0" fill="#fff" font-family="Biohazard"><tspan y="-669.891" x="247.956">D</tspan></text><text y="-765.088" x="152.105" style="line-height:125%;-inkscape-font-specification:Biohazard" transform="matrix(-.174 1.606 -.615 -.067 0 0)" font-size="116.343" letter-spacing="0" word-spacing="0" fill="#fff" font-family="Biohazard"><tspan y="-765.088" x="152.105">whos</tspan></text><text style="line-height:125%;-inkscape-font-specification:Biohazard" x="20.935" y="1072.5" transform="matrix(1.677 -.311 .107 .576 0 0)" font-size="122.806" letter-spacing="0" word-spacing="0" fill="#fff" font-family="Biohazard"><tspan x="20.935" y="1072.5">your</tspan></text><text y="588.439" x="369.536" style="line-height:125%;-inkscape-font-specification:Biohazard" transform="matrix(1.563 .959 -.285 .465 0 0)" font-size="132.039" letter-spacing="0" word-spacing="0" fill="#fff" font-family="Biohazard"><tspan y="588.439" x="369.536">daddy</tspan></text><path d="M-495.687 217.35l-103.375 179.031 35.125 60.844 35.125 60.844h206.25v-181.563h-32.281l16.375-28.375-157.219-90.781zm379.594-3.469l-157.25 90.781 18.375 31.844h-39.906v181.563h213.875l35.125-60.844 35.125-60.844-105.344-182.5zm-259.063-205.313l-106.031 183.656 157.219 90.781 19.063-33 18.875 32.688 157.25-90.781-105.875-183.344h-140.5zm-82.719 210.906c-34.073 58.969-68.146 117.938-102.219 176.906 16.896 29.229 33.792 58.458 50.687 87.688h409.031c16.896-29.229 33.792-58.458 50.688-87.688-68.142-117.952-136.309-235.889-204.5-353.813h-101.406c-34.094 58.969-68.188 117.938-102.281 176.906zm154.688-34.656c35.572 61.927 71.088 123.975 107.188 185.688h-217.875c36.848-62.649 72.71-125.73 108.969-188.688l1.719 3z"/></g></svg>