<?xml version="1.0" encoding="UTF-8" standalone="no"?>
<!-- Created with Inkscape (http://www.inkscape.org/) -->

<svg
   xmlns:dc="http://purl.org/dc/elements/1.1/"
   xmlns:cc="http://creativecommons.org/ns#"
   xmlns:rdf="http://www.w3.org/1999/02/22-rdf-syntax-ns#"
   xmlns:svg="http://www.w3.org/2000/svg"
   xmlns="http://www.w3.org/2000/svg"
   xmlns:sodipodi="http://sodipodi.sourceforge.net/DTD/sodipodi-0.dtd"
   xmlns:inkscape="http://www.inkscape.org/namespaces/inkscape"
   width="785.3125"
   height="679.70001"
   id="svg2"
   version="1.1"
   inkscape:version="0.48.4 r9939"
   sodipodi:docname="wyd-logo-2.1.svg">
  <defs
     id="defs4">
    <filter
       id="filter3081"
       inkscape:menu-tooltip="Roughen all inside shapes"
       inkscape:menu="Distort"
       inkscape:label="Roughen inside"
       color-interpolation-filters="sRGB">
      <feGaussianBlur
         id="feGaussianBlur3083"
         result="result1"
         stdDeviation="3" />
      <feBlend
         id="feBlend3085"
         in2="result1"
         result="result5"
         mode="multiply"
         in="result1" />
      <feGaussianBlur
         id="feGaussianBlur3087"
         in="result5"
         result="result6"
         stdDeviation="1" />
      <feComposite
         id="feComposite3089"
         in2="result5"
         result="result8"
         in="result6"
         operator="xor" />
      <feComposite
         id="feComposite3091"
         in2="result8"
         in="result6"
         result="fbSourceGraphic"
         operator="xor" />
      <feSpecularLighting
         id="feSpecularLighting3093"
         in="fbSourceGraphic"
         result="result1"
         lighting-color="#ffffff"
         surfaceScale="2"
         specularConstant="2.20000005"
         specularExponent="55">
        <fePointLight
           id="fePointLight3095"
           x="-5000"
           y="-10000"
           z="20000" />
      </feSpecularLighting>
      <feComposite
         id="feComposite3097"
         in2="fbSourceGraphic"
         in="result1"
         result="result2"
         operator="in" />
      <feComposite
         id="feComposite3099"
         in2="result2"
         in="fbSourceGraphic"
         result="result4"
         operator="arithmetic"
         k2="2"
         k3="1"
         k1="0"
         k4="0" />
      <feComposite
         id="feComposite3101"
         in2="result4"
         operator="in"
         result="result91" />
      <feBlend
         id="feBlend3103"
         in2="result91"
         mode="darken"
         result="fbSourceGraphic" />
      <feColorMatrix
         result="fbSourceGraphicAlpha"
         in="fbSourceGraphic"
         values="0 0 0 -1 0 0 0 0 -1 0 0 0 0 -1 0 0 0 0 1 0"
         id="feColorMatrix3105" />
      <feTurbulence
         id="feTurbulence3107"
         numOctaves="5"
         seed="0"
         type="fractalNoise"
         baseFrequency="0.08" />
      <feGaussianBlur
         id="feGaussianBlur3109"
         stdDeviation="0.5"
         result="result91" />
      <feDisplacementMap
         id="feDisplacementMap3111"
         in2="result91"
         scale="20"
         yChannelSelector="G"
         xChannelSelector="R"
         in="fbSourceGraphic"
         result="result1" />
      <feComposite
         id="feComposite3113"
         in2="fbSourceGraphic"
         in="result1"
         operator="atop" />
    </filter>
    <filter
       id="filter3173"
       inkscape:label="Noise transparency"
       inkscape:menu="ABCs"
       inkscape:menu-tooltip="Basic noise transparency texture"
       height="1.4"
       y="-0.2"
       width="1.4"
       x="-0.2"
       color-interpolation-filters="sRGB">
      <feTurbulence
         id="feTurbulence3175"
         baseFrequency="0.05"
         numOctaves="5"
         type="fractalNoise"
         result="result91" />
      <feDisplacementMap
         id="feDisplacementMap3177"
         in2="result91"
         scale="25"
         result="result5"
         xChannelSelector="R"
         in="SourceGraphic"
         yChannelSelector="A" />
      <feComposite
         id="feComposite3179"
         in2="result5"
         in="SourceGraphic"
         operator="atop"
         result="fbSourceGraphic" />
      <feColorMatrix
         result="fbSourceGraphicAlpha"
         in="fbSourceGraphic"
         values="0 0 0 -1 0 0 0 0 -1 0 0 0 0 -1 0 0 0 0 1 0"
         id="feColorMatrix3181" />
      <feTurbulence
         id="feTurbulence3183"
         type="fractalNoise"
         numOctaves="5"
         baseFrequency="0.02"
         result="result1" />
      <feComposite
         id="feComposite3185"
         in2="result1"
         operator="in"
         result="result2"
         in="fbSourceGraphic" />
      <feColorMatrix
         id="feColorMatrix3187"
         result="result3"
         values="1 0 0 0 0 0 1 0 0 0 0 0 1 0 0 0 0 0 3 -1 "
         in="result2" />
    </filter>
    <filter
       inkscape:collect="always"
       id="filter3829"
       color-interpolation-filters="sRGB">
      <feGaussianBlur
         inkscape:collect="always"
         stdDeviation="10.978125"
         id="feGaussianBlur3831" />
    </filter>
  </defs>
  <sodipodi:namedview
     id="base"
     pagecolor="#ffffff"
     bordercolor="#666666"
     borderopacity="1.0"
     inkscape:pageopacity="0.0"
     inkscape:pageshadow="2"
     inkscape:zoom="0.53403756"
     inkscape:cx="759.40925"
     inkscape:cy="104.37413"
     inkscape:document-units="px"
     inkscape:current-layer="layer1"
     showgrid="false"
     inkscape:window-width="1600"
     inkscape:window-height="837"
     inkscape:window-x="-8"
     inkscape:window-y="-8"
     inkscape:window-maximized="1"
     fit-margin-top="0"
     fit-margin-left="0"
     fit-margin-right="0"
     fit-margin-bottom="0" />
  <metadata
     id="metadata7">
    <rdf:RDF>
      <cc:Work
         rdf:about="">
        <dc:format>image/svg+xml</dc:format>
        <dc:type
           rdf:resource="http://purl.org/dc/dcmitype/StillImage" />
        <dc:title />
      </cc:Work>
    </rdf:RDF>
  </metadata>
  <g
     inkscape:label="Layer 1"
     inkscape:groupmode="layer"
     id="layer1"
     transform="translate(24.093752,-151.02501)">
    <path
       inkscape:export-ydpi="43.57"
       inkscape:export-xdpi="43.57"
       inkscape:export-filename="H:\wyd-logo-2.0.png"
       inkscape:connector-curvature="0"
       d="m 177.79691,444.90625 -103.375,179.03127 35.125,60.84379 35.125,60.8437 206.25,0 0,-181.5625 -32.2813,0 16.375,-28.375 -157.2187,-90.78126 z m 379.59377,-3.46875 -157.24997,90.78125 18.375,31.84375 -39.9063,0 0,181.5625 213.87497,0 35.12496,-60.8437 35.125,-60.84379 L 557.39068,441.43749 z M 298.32811,236.125 l -106.0312,183.65625 157.2188,90.78125 19.0625,-33 18.875,32.6875 157.24997,-90.78125 -105.875,-183.34375 -70.24997,0 -70.2501,0 z m -82.7187,210.90625 c -34.0729,58.96875 -68.1458,117.9375 -102.2187,176.90627 16.8958,29.22919 33.7916,58.45829 50.6874,87.68749 136.3438,0 272.68757,0 409.03127,0 16.8958,-29.2292 33.79167,-58.4583 50.68747,-87.68749 C 555.65468,505.98589 487.48798,388.0484 419.29691,270.125 c -33.8021,0 -67.6042,0 -101.4063,0 -34.0937,58.96876 -68.1875,117.93752 -102.2812,176.90625 z M 370.29691,412.375 c 35.5724,61.9266 71.08767,123.97541 107.18747,185.6875 -72.62497,0 -145.24997,0 -217.87497,0 36.8477,-62.64856 72.7101,-125.73019 108.9688,-188.6875 0.5729,1 1.1458,2 1.7187,3 z"
       style="fill:#ffffff;fill-opacity:1;stroke:none;filter:url(#filter3829)"
       id="path3047" />
    <path
       style="fill:#000000;fill-opacity:1;stroke:#000000;stroke-width:3;stroke-miterlimit:4;stroke-opacity:1;stroke-dasharray:none"
       d="M 215.59375,447.03125 C 181.52083,506 147.44792,564.96875 113.375,623.9375 c 16.89583,29.22917 33.79167,58.45833 50.6875,87.6875 136.34375,0 272.6875,0 409.03125,0 16.89583,-29.22917 33.79167,-58.45833 50.6875,-87.6875 -68.14224,-117.95162 -136.30892,-235.88911 -204.5,-353.8125 -33.80208,0 -67.60417,0 -101.40625,0 -34.09375,58.96875 -68.1875,117.9375 -102.28125,176.90625 z M 370.28125,412.375 c 35.5724,61.92659 71.08772,123.9754 107.1875,185.6875 -72.625,0 -145.25,0 -217.875,0 36.84773,-62.64857 72.71012,-125.73019 108.96875,-188.6875 0.57292,1 1.14583,2 1.71875,3 z"
       id="path2985"
       inkscape:connector-curvature="0"
       inkscape:export-filename="H:\wyd-logo-2.0.png"
       inkscape:export-xdpi="43.57"
       inkscape:export-ydpi="43.57" />
    <g
       id="g3076"
       style="filter:url(#filter3081)"
       inkscape:export-filename="H:\wyd-logo-2.0.png"
       inkscape:export-xdpi="43.57"
       inkscape:export-ydpi="43.57">
      <path
         id="path3013"
         d="M 298.3125,236.125 192.28125,419.78125 349.5,510.5625 l 19.0625,-33 18.875,32.6875 157.25,-90.78125 -105.875,-183.34375 -70.25,0 -70.25,0 z"
         style="fill:#28170b;fill-opacity:1;stroke:none"
         inkscape:connector-curvature="0" />
      <path
         id="path3009"
         d="m 557.375,441.4375 -157.25,90.78125 18.375,31.84375 -39.90625,0 0,181.5625 213.875,0 35.125,-60.84375 35.125,-60.84375 -105.34375,-182.5 z"
         style="fill:#28170b;fill-opacity:1;stroke:none"
         inkscape:connector-curvature="0" />
      <path
         id="path3011"
         d="m 177.78125,444.90625 -103.375,179.03125 35.125,60.84375 35.125,60.84375 206.25,0 0,-181.5625 -32.28125,0 L 335,535.6875 177.78125,444.90625 z"
         style="fill:#28170b;fill-opacity:1;stroke:none"
         inkscape:connector-curvature="0" />
    </g>
    <g
       id="g3168"
       transform="translate(406.5,229.0625)"
       style="fill:#552200;filter:url(#filter3173)"
       inkscape:export-filename="H:\wyd-logo-2.0.png"
       inkscape:export-xdpi="43.57"
       inkscape:export-ydpi="43.57">
      <path
         inkscape:connector-curvature="0"
         id="path3126"
         d="m -197.90625,186.40625 c 45.53125,26.26042 91.0625,52.52083 136.59375,78.78125 7.790475,-13.56318 15.590925,-27.12064 23.375,-40.6875 7.72253,13.46214 15.459368,26.91607 23.1875,40.375 C 30.791667,238.61458 76.333333,212.35417 121.875,186.09375 89.708333,130.41667 57.541667,74.739583 25.375,19.0625 c -42.208333,0 -84.416667,0 -126.625,0 -32.21875,55.78125 -64.4375,111.5625 -96.65625,167.34375 z"
         style="fill:#552200;fill-opacity:1;stroke:none" />
      <path
         inkscape:connector-curvature="0"
         id="path3128"
         d="m 9.9375,307.46875 c 7.599416,13.19187 15.194294,26.38646 22.875,39.53125 -16.239583,0 -32.47916667,0 -48.71875,0 0,52.52083 0,105.04167 0,157.5625 65,0 130,0 195,0 C 200.23958,468 221.38542,431.4375 242.53125,394.875 210.54167,339.47917 178.55208,284.08333 146.5625,228.6875 101.02083,254.94792 55.479167,281.20833 9.9375,307.46875 z"
         style="fill:#552200;fill-opacity:1;stroke:none" />
      <path
         inkscape:connector-curvature="0"
         id="path3130"
         d="m -318.40625,394.875 c 21.14583,36.5625 42.29167,73.125 63.4375,109.6875 62.45833,0 124.91667,0 187.375,0 0,-52.52083 0,-105.04167 0,-157.5625 -13.697917,0 -27.395833,0 -41.09375,0 7.01485,-11.98805 13.953636,-24.0203 20.875,-36.0625 -45.53125,-26.26042 -91.0625,-52.52083 -136.59375,-78.78125 -31.33333,54.23958 -62.66667,108.47917 -94,162.71875 z"
         style="fill:#552200;fill-opacity:1;stroke:none" />
    </g>
    <g
       style="font-size:400px;font-style:normal;font-variant:normal;font-weight:normal;font-stretch:normal;line-height:125%;letter-spacing:0px;word-spacing:0px;fill:#ffffff;fill-opacity:1;stroke:none;font-family:Biohazard;-inkscape-font-specification:Biohazard"
       id="text3035">
      <path
         d="m 323.44531,430.8031 -4.10156,-18.55469 -0.19531,-10.54687 c -1.56251,-9.11453 -2.9948,-18.164 -4.29688,-27.14844 l -2.14844,-16.99219 1.36719,-3.71093 -3.125,-11.71875 0.97656,-5.46875 -4.29687,-21.875 0,-13.86719 5.27344,1.17187 13.47656,-3.51562 3.32031,13.47656 5.07813,54.88281 2.14843,4.88282 8.78907,58.00781 c 2.08329,-1.04165 3.12496,-2.34373 3.125,-3.90625 l -1.36719,-24.02344 3.71094,-12.69531 10.15625,-2.92969 0.19531,1.75781 3.32031,-0.39062 -0.58594,10.54687 2.14844,3.125 2.53906,5.07813 -0.78125,22.46094 -15.42968,15.82031 c -7.1615,1.17187 -16.92711,-3.45052 -29.29688,-13.86719 z m 17.1875,14.64844 -15.625,-14.64844 -1.75781,-22.65625 1.95312,-5.07812 1.95313,-3.32032 -0.97656,-10.54687 3.32031,0.19531 0,-1.75781 9.76562,2.53906 4.29688,12.30469 -0.19531,24.21875 c -4e-5,1.56252 1.04163,2.79949 3.125,3.71094 l 5.66406,-58.39844 1.95312,-5.07813 2.14844,-55.07812 2.53906,-13.67188 13.08594,2.73438 5.07813,-1.36719 0.78125,13.67188 -3.32032,22.26562 1.36719,5.46875 -2.53906,11.71875 1.5625,3.71094 -1.17188,16.99219 c -0.91152,8.98443 -3.25527,18.68495 -7.03125,29.10156 l 4.29688,8.98437 -2.92969,18.55469 c -11.32817,11.06771 -20.44275,16.21094 -27.34375,15.42969 z m 34.57031,-14.64844 -4.10156,-18.55469 -0.19531,-10.54687 c -1.56256,-9.11453 -2.99485,-18.164 -4.29688,-27.14844 l -2.14843,-16.99219 1.36718,-3.71093 -3.125,-11.71875 0.97657,-5.46875 -4.49219,-21.875 0.19531,-13.86719 5.27344,1.17187 13.47656,-3.51562 3.32031,13.47656 5.07813,54.88281 2.14844,4.88282 8.78906,58.00781 c 2.08324,-1.04165 3.12491,-2.34373 3.125,-3.90625 l -1.36719,-24.02344 3.71094,-12.69531 10.15625,-2.92969 0.19531,1.75781 3.32031,-0.39062 -0.58593,10.54687 2.14843,3.125 2.53907,5.07813 -0.78125,22.46094 L 404.5,444.67029 c -7.16155,1.17187 -16.92716,-3.45052 -29.29688,-13.86719 z m 17.1875,14.64844 -15.625,-14.64844 -1.75781,-22.65625 1.95313,-5.07812 1.95312,-3.32032 -0.97656,-10.54687 3.32031,0.19531 0,-1.75781 9.76563,2.53906 4.29687,12.30469 -0.19531,24.21875 c -9e-5,1.56252 1.04158,2.79949 3.125,3.71094 l 5.66406,-58.39844 1.95313,-5.07813 2.14843,-55.07812 2.53907,-13.67188 13.08593,2.73438 5.07813,-1.36719 0.78125,13.67188 -3.32031,22.26562 1.36718,5.46875 -2.53906,11.71875 1.5625,3.71094 -1.17187,16.99219 c -0.91158,8.98443 -3.25533,18.68495 -7.03125,29.10156 l 4.29687,8.98437 -2.92969,18.55469 c -11.32822,11.06771 -20.4428,16.21094 -27.34375,15.42969 z"
         style=""
         id="path3068" />
    </g>
    <g
       transform="matrix(-0.5,-0.8660254,0.8660254,-0.5,0,0)"
       style="font-size:400px;font-style:normal;font-variant:normal;font-weight:normal;font-stretch:normal;line-height:125%;letter-spacing:0px;word-spacing:0px;fill:#ffffff;fill-opacity:1;stroke:none;font-family:Biohazard;-inkscape-font-specification:Biohazard"
       id="text3039">
      <path
         d="m -684.534,-192.8157 c 7.55208,-2.73422 15.62499,-3.77589 24.21875,-3.125 l 3.71094,15.625 4.10156,4.6875 0.19532,6.25 8.20312,16.01562 0.19531,6.25 c 2.73434,3.90636 5.2734,8.59385 7.61719,14.0625 l -1.5625,6.83594 -6.83594,42.968752 -9.17968,-24.023442 -6.05469,-20.89843 -5.85938,-10.54688 c 1.43227,-0.91136 2.14842,-2.60406 2.14844,-5.07812 l -3.32031,-2.92969 -10.15625,-21.67969 z m 55.46875,-7.8125 c 7.42182,2.73453 14.25775,7.16161 20.50782,13.28125 l -7.03125,14.25781 0,6.25 -3.90625,5.07813 -3.71094,17.57812 -3.90625,4.88281 c -0.39068,4.6876 -1.43235,9.89593 -3.125,15.625 l -5.66406,4.29688 -0.78125,14.45312 -7.03125,14.453129 0.58593,4.296875 -17.1875,44.335938 -15.625,-3.515625 -4.88281,-3.515625 4.49219,-19.335938 7.61719,-16.210937 0.19531,-6.25 8.20312,-24.414067 8.78907,-19.92187 2.14843,-11.91406 c 1.69267,0.26052 3.32028,-0.58583 4.88282,-2.53907 l -0.58594,-4.49218 5.85937,-23.04688 z"
         style=""
         id="path3065" />
    </g>
    <g
       transform="matrix(-0.5,0.8660254,-0.8660254,-0.5,0,0)"
       style="font-size:400px;font-style:normal;font-variant:normal;font-weight:normal;font-stretch:normal;line-height:125%;letter-spacing:0px;word-spacing:0px;fill:#ffffff;fill-opacity:1;stroke:none;font-family:Biohazard;-inkscape-font-specification:Biohazard"
       id="text3043">
      <path
         d="m 281.94052,-872.8208 c 8.98433,1.30228 14.32287,6.05488 16.01563,14.25781 l -1.75782,33.98438 c -0.13025,9.24493 -1.30213,18.2293 -3.51562,26.95312 l 5.27344,23.24219 -1.75782,5.27344 1.75782,16.21093 -1.75782,80.46875 -7.22656,3.51563 -16.01562,-5.27344 -16.01563,5.27344 -3.71094,-7.03125 c -3.25521,-9.37499 -5.01302,-20.11716 -5.27343,-32.22656 l 0,-73.4375 1.75781,-26.75782 3.51562,-5.46875 c 3.2552,-4.55714 7.42187,-8.7238 12.5,-12.5 l 5.46875,7.22657 c 2.60414,-1.56235 4.94789,-3.9712 7.03125,-7.22657 -0.26044,-5.729 -1.43232,-11.71858 -3.51562,-17.96875 0.78122,-8.85398 3.19007,-18.35918 7.22656,-28.51562 z m -10.74219,73.24219 -1.75781,51.95312 1.75781,0 -1.75781,5.46875 0,39.25781 c 0.2604,5.07816 2.01821,9.30992 5.27344,12.69532 2.86455,-6.11977 4.62236,-13.28122 5.27344,-21.48438 -2.21358,-8.46349 -3.97139,-18.03379 -5.27344,-28.71094 l 0,-30.46875 1.75781,-3.51562 c -0.91148,-7.9426 -2.6693,-16.34103 -5.27344,-25.19531 z m 19.53125,10.74218 -5.27343,5.46875 7.22656,1.75782 z"
         style=""
         id="path3062" />
    </g>
    <g
       transform="matrix(-0.17449578,1.6064223,-0.61524199,-0.06682995,0,0)"
       style="font-size:116.34276581px;font-style:normal;font-variant:normal;font-weight:normal;font-stretch:normal;line-height:125%;letter-spacing:0px;word-spacing:0px;fill:#ffffff;fill-opacity:1;stroke:none;font-family:Biohazard;-inkscape-font-specification:Biohazard"
       id="text3053">
      <path
         d="m 156.70664,-769.63302 -1.19297,-5.39676 -0.0568,-3.06763 c -0.45447,-2.65102 -0.87106,-5.28312 -1.24978,-7.89631 l -0.62489,-4.94229 0.39766,-1.07936 -0.90893,-3.40848 0.28404,-1.59062 -1.24978,-6.36249 0,-4.03337 1.53382,0.34085 3.91975,-1.02255 0.96574,3.91975 1.477,15.96305 0.62489,1.4202 2.55636,16.87197 c 0.60594,-0.30297 0.90892,-0.68169 0.90893,-1.13616 l -0.39766,-6.98738 1.07936,-3.69252 2.95401,-0.85212 0.0568,0.51127 0.96574,-0.11361 -0.17043,3.06763 0.62489,0.90893 0.7385,1.477 -0.22723,6.53292 -4.48783,4.60145 c -2.08297,0.34085 -4.92337,-1.00361 -8.5212,-4.03337 z m 4.9991,4.2606 -4.54463,-4.2606 -0.51128,-6.58973 0.56808,-1.477 0.56808,-0.96574 -0.28404,-3.06763 0.96574,0.0568 0,-0.51127 2.8404,0.7385 1.24977,3.5789 -0.0568,7.04419 c -1e-5,0.45447 0.30296,0.81426 0.90892,1.07936 l 1.64744,-16.98559 0.56808,-1.47701 0.62488,-16.01985 0.73851,-3.97656 3.80613,0.79531 1.47701,-0.39766 0.22723,3.97656 -0.96573,6.47611 0.39765,1.59063 -0.7385,3.40848 0.45446,1.07935 -0.34084,4.94229 c -0.26513,2.61319 -0.94682,5.43465 -2.04509,8.46439 l 1.24977,2.61317 -0.85212,5.39676 c -3.29487,3.21912 -5.94591,4.71506 -7.95312,4.48783 z m 10.05502,-4.2606 -1.19297,-5.39676 -0.0568,-3.06763 c -0.45448,-2.65102 -0.87107,-5.28312 -1.24977,-7.89631 l -0.62489,-4.94229 0.39766,-1.07936 -0.90893,-3.40848 0.28404,-1.59062 -1.30659,-6.36249 0.0568,-4.03337 1.53382,0.34085 3.91975,-1.02255 0.96573,3.91975 1.47701,15.96305 0.62489,1.4202 2.55636,16.87197 c 0.60593,-0.30297 0.9089,-0.68169 0.90893,-1.13616 l -0.39766,-6.98738 1.07935,-3.69252 2.95402,-0.85212 0.0568,0.51127 0.96573,-0.11361 -0.17042,3.06763 0.62489,0.90893 0.7385,1.477 -0.22723,6.53292 -4.48783,4.60145 c -2.08299,0.34085 -4.92338,-1.00361 -8.5212,-4.03337 z m 4.9991,4.2606 -4.54464,-4.2606 -0.51127,-6.58973 0.56808,-1.477 0.56808,-0.96574 -0.28404,-3.06763 0.96574,0.0568 0,-0.51127 2.8404,0.7385 1.24977,3.5789 -0.0568,7.04419 c -2e-5,0.45447 0.30295,0.81426 0.90893,1.07936 l 1.64743,-16.98559 0.56808,-1.47701 0.62489,-16.01985 0.73851,-3.97656 3.80613,0.79531 1.47701,-0.39766 0.22723,3.97656 -0.96574,6.47611 0.39766,1.59063 -0.7385,3.40848 0.45446,1.07935 -0.34085,4.94229 c -0.26514,2.61319 -0.94683,5.43465 -2.04508,8.46439 l 1.24977,2.61317 -0.85212,5.39676 c -3.29489,3.21912 -5.94593,4.71506 -7.95312,4.48783 z"
         style=""
         id="path3053" />
      <path
         d="m 195.44969,-822.00999 c 0.98467,1.59068 1.66636,3.31386 2.04509,5.16953 l 0.51127,7.21462 5.11272,-0.56808 c 1.13615,1.8179 1.98827,3.88192 2.55636,6.19207 l 0.51127,8.23716 -0.51127,7.21461 0.51127,7.21462 -2.55636,20.56449 -2.04508,7.21461 -1.53382,-3.06763 1.02254,-13.34988 c -0.49234,-2.38592 -0.83319,-4.96122 -1.02254,-7.72588 l -0.51127,-3.12444 0.51127,-1.02255 -0.51127,-18.00813 0.51127,-2.04509 -2.04509,-2.61316 0,38.62943 c -0.64383,-0.30298 -1.1551,-0.81425 -1.53381,-1.53382 l -2.55636,2.04509 -2.04509,0 0,-7.21461 0.51127,-2.04509 -0.51127,-14.42923 0.51127,-4.09018 -0.51127,-1.59062 0,-9.2597 0.51127,-1.02255 c -0.34085,-2.42376 -0.51127,-5.16948 -0.51127,-8.23716 l 0.51127,-7.21461 2.55636,1.02254 -1.02254,-2.04508 1.53381,0 z m 0.45447,2.66998 c 0.0379,0.41665 0.35978,0.73856 0.96573,0.96574 -0.0757,-0.41654 -0.39766,-0.73845 -0.96573,-0.96574 z m -1.53382,9.99821 0,-0.96574 -0.51127,0 z m 1.02254,38.62943 c -0.0757,-0.45446 -0.41659,-0.79531 -1.02254,-1.02254 0.15149,0.34085 0.49233,0.6817 1.02254,1.02254 z"
         style=""
         id="path3055" />
      <path
         d="m 215.38929,-810.25073 5.85123,0.96573 c 1.02253,1.51493 1.81784,3.29491 2.38593,5.33996 l 0.51127,13.12264 -0.51127,4.82868 0.51127,1.98828 0,7.72589 c -0.11362,1.6285 -0.60596,3.40848 -1.477,5.33995 l 0.51127,3.40848 -0.51127,0.96573 -1.93147,0.51128 -1.93148,0.96573 -4.37421,-0.96573 c -1.40127,-0.9468 -2.53743,-2.23445 -3.40848,-3.86295 l -0.51127,-15.05412 0.51127,-5.39675 -0.51127,-1.4202 0,-7.7827 c 0.0757,-2.12079 0.39765,-4.39311 0.96573,-6.81696 0.90893,-1.32548 2.21551,-2.61312 3.91975,-3.86294 z m 1.4202,6.81696 0,15.50858 -0.45446,1.47701 0.45446,8.23716 -0.45446,3.91975 0.45446,1.93147 c 0.45446,-0.0757 0.79531,-0.39765 1.02255,-0.96574 l 0.96573,-3.91975 -0.96573,-3.86294 0.45446,-6.30569 -0.45446,-1.47701 0.45446,-1.477 -0.45446,-6.76016 0.45446,-3.91975 -0.45446,-0.96573 z"
         style=""
         id="path3057" />
      <path
         d="m 238.56695,-803.37696 -3.35167,0 c -1.21191,2.15873 -1.96935,4.2985 -2.27232,6.4193 l 2.27232,7.95312 c 1.40126,-0.79529 2.70784,-1.7989 3.91975,-3.01083 l 4.99911,18.34898 -0.56808,0.51128 0.56808,1.477 c -0.34087,1.6285 -0.62491,2.66998 -0.85212,3.12444 -0.22725,0.45447 -1.45809,1.26872 -3.69252,2.44275 -2.23446,1.17403 -5.94591,1.13616 -11.13437,-0.11362 l 0,-3.97656 4.48783,-0.45446 1.70424,0.45446 c 0.98467,-0.34084 1.72317,-0.83318 2.21551,-1.47701 l -2.21551,-3.46528 -2.27232,-8.40759 c -0.64382,-3.06761 -1.40126,-5.71864 -2.27232,-7.95311 l -1.64743,-8.40759 c 0.0379,-3.29482 0.32191,-5.60501 0.85212,-6.93057 0.53021,-1.32548 3.80613,-2.15866 9.82778,-2.49955 -0.0757,2.23449 -0.26511,4.22276 -0.56808,5.96484 z m 2.21552,-0.51128 c 0.15147,-2.19653 1.07933,-3.84396 2.78359,-4.94229 -0.71959,1.85577 -1.64745,3.5032 -2.78359,4.94229 z"
         style=""
         id="path3059" />
    </g>
    <g
       transform="matrix(1.6770123,-0.31118744,0.10696638,0.5764498,0,0)"
       style="font-size:122.80608368px;font-style:normal;font-variant:normal;font-weight:normal;font-stretch:normal;line-height:125%;letter-spacing:0px;word-spacing:0px;fill:#ffffff;fill-opacity:1;stroke:none;font-family:Biohazard;-inkscape-font-specification:Biohazard"
       id="text3057">
      <path
         d="m 20.935429,1026.0276 c 2.318602,-0.8394 4.797107,-1.1592 7.435524,-0.9594 l 1.139314,4.7971 1.259243,1.4391 0.05996,1.9189 2.518485,4.917 0.05996,1.9189 c 0.839482,1.1993 1.619012,2.6384 2.338593,4.3174 l -0.479711,2.0987 -2.098737,13.1921 -2.818304,-7.3756 -1.858881,-6.4161 -1.798917,-3.2381 c 0.439729,-0.2798 0.659596,-0.7995 0.659603,-1.5591 l -1.019387,-0.8994 -3.118123,-6.656 z m 17.02975,-2.3986 c 2.278609,0.8396 4.377343,2.1988 6.29621,4.0776 l -2.158701,4.3774 0,1.9188 -1.199278,1.5591 -1.139314,5.3967 -1.199278,1.4991 c -0.119946,1.4392 -0.439753,3.0382 -0.959423,4.7971 l -1.738953,1.3192 -0.239856,4.4374 -2.158701,4.4373 0.179892,1.3192 -5.276824,13.6118 -4.797112,-1.0793 -1.499098,-1.0794 1.37917,-5.9364 2.338592,-4.977 0.05996,-1.9189 2.518484,-7.4955 2.698376,-6.1163 0.659603,-3.6578 c 0.519676,0.08 1.019375,-0.1798 1.499098,-0.7795 l -0.179892,-1.3792 1.798917,-7.0757 z"
         style=""
         id="path3043" />
      <path
         d="m 53.915578,1024.8283 6.176283,1.0194 c 1.079338,1.5991 1.918832,3.478 2.518484,5.6366 l 0.539675,13.8517 -0.539675,5.0969 0.539675,2.0988 0,8.155 c -0.119942,1.719 -0.639629,3.5979 -1.559061,5.6367 l 0.539675,3.5978 -0.539675,1.0194 -2.038773,0.5396 -2.038773,1.0194 -4.617221,-1.0194 c -1.479112,-0.9993 -2.678389,-2.3585 -3.597835,-4.0775 l -0.539675,-15.8904 0.539675,-5.6966 -0.539675,-1.4991 0,-8.2151 c 0.07995,-2.2386 0.419747,-4.6371 1.019387,-7.1956 0.95942,-1.3991 2.338589,-2.7583 4.137509,-4.0776 z m 1.499098,7.1957 0,16.3701 -0.479711,1.5591 0.479711,8.6948 -0.479711,4.1375 0.479711,2.0388 c 0.479704,-0.08 0.839487,-0.4198 1.07935,-1.0194 l 1.019387,-4.1375 -1.019387,-4.0776 0.479712,-6.656 -0.479712,-1.559 0.479712,-1.5591 -0.479712,-7.1357 0.479712,-4.1375 -0.479712,-1.0194 z"
         style=""
         id="path3045" />
      <path
         d="m 67.707279,1071.84 0.539675,-6.3561 -0.539675,-5.7566 1.559062,-2.6384 c -0.959423,-3.278 -1.47911,-6.2962 -1.559062,-9.0545 l 0,-5.2769 0.539675,-1.0793 -0.539675,-3.6578 0.539675,-1.619 -0.539675,-6.8959 0.539675,-4.1975 1.559062,0.5397 4.257437,-0.5397 0.479712,4.1975 -0.479712,16.9698 0.479712,1.5591 0.539675,17.9891 c 0.679583,-0.2398 1.039366,-0.5996 1.07935,-1.0793 l 0.479712,-7.3756 1.619025,-3.7177 3.178087,-0.5397 0,0.5397 1.019387,0 -0.539676,3.238 0.539676,1.0194 0.539675,1.619 -1.079351,6.8359 -5.276823,4.2574 c -2.198684,0.08 -4.117527,0.7796 -5.756536,2.0988 z m 6.715958,-1.3192 -3.058159,1.0194 -2.038773,-5.2768 -1.019387,-6.8359 0.539675,-1.619 0.479712,-1.0194 -0.479712,-3.2381 0.959423,0 0,-0.5396 3.058159,0.5396 1.559062,3.7178 0.479711,7.3756 c -7e-6,0.4797 0.339788,0.8395 1.019387,1.0793 l 0.479711,-17.9892 0.479711,-1.559 -0.479711,-16.9698 0.479711,-4.1975 4.077546,0.5397 1.499098,-0.5397 0.539675,4.1975 -0.539675,6.8958 0.539675,1.6191 -0.539675,3.6578 0.539675,1.0793 0,5.2768 c -0.07997,2.7584 -0.579666,5.7766 -1.499098,9.0546 l 1.499098,2.6384 -0.539675,5.7565 c -3.238063,3.6379 -5.916448,5.4168 -8.035164,5.3368 z"
         style=""
         id="path3048" />
      <path
         d="m 90.793386,1025.1281 c 1.639009,1.3193 3.557852,2.0189 5.756536,2.0988 l 3.178087,-1.0194 2.098741,5.2169 1.07935,6.8358 -0.53968,1.6191 -0.53967,1.0194 0.53967,3.178 -1.01939,0 0,0.5397 -3.178083,-0.5397 -1.619025,-3.6578 -0.479712,-7.3755 c -0.03998,-0.4797 -0.399767,-0.8395 -1.07935,-1.0794 l -0.539675,17.9292 -0.479712,1.5591 0.479712,16.8499 -0.479712,4.1974 -4.257437,-0.5396 -1.559062,0.5396 -0.539675,-4.1974 0.539675,-6.8359 -0.539675,-1.6191 0.539675,-3.6577 -0.539675,-1.0794 0,-5.2169 c 0.07995,-2.7583 0.599639,-5.7565 1.559062,-8.9945 l -1.559062,-2.6385 0.539675,-5.7565 -0.539675,-6.2962 z"
         style=""
         id="path3050" />
    </g>
    <g
       transform="matrix(1.563243,0.958838,-0.28510551,0.46482218,0,0)"
       style="font-size:132.03903198px;font-style:normal;font-variant:normal;font-weight:normal;font-stretch:normal;line-height:125%;letter-spacing:0px;word-spacing:0px;fill:#ffffff;fill-opacity:1;stroke:none;font-family:Biohazard;-inkscape-font-specification:Biohazard"
       id="text3061">
      <path
         d="m 380.75408,521.45237 c 2.96571,0.42988 4.72794,1.9987 5.28672,4.70647 l -0.58025,11.21816 c -0.043,3.05173 -0.42983,6.01744 -1.1605,8.89716 l 1.74075,7.67219 -0.58025,1.74075 0.58025,5.35119 -0.58025,26.56254 -2.38547,1.1605 -5.28672,-1.74075 -5.28672,1.74075 -1.22497,-2.321 c -1.07454,-3.09466 -1.65479,-6.64063 -1.74075,-10.63791 l 0,-24.24154 0.58025,-8.83269 1.1605,-1.80522 c 1.07453,-1.50431 2.44994,-2.87971 4.12622,-4.12622 l 1.80522,2.38547 c 0.85962,-0.51573 1.63329,-1.31089 2.321,-2.38547 -0.086,-1.89113 -0.47281,-3.86828 -1.1605,-5.93145 0.25788,-2.92267 1.05303,-6.06032 2.38547,-9.41293 z m -3.54597,24.17706 -0.58025,17.14961 0.58025,0 -0.58025,1.80522 0,12.95891 c 0.086,1.67628 0.6662,3.07318 1.74075,4.19069 0.94558,-2.02012 1.52583,-4.3841 1.74075,-7.09194 -0.7307,-2.79378 -1.31095,-5.95291 -1.74075,-9.47741 l 0,-10.05766 0.58025,-1.1605 c -0.30088,-2.62184 -0.88113,-5.39414 -1.74075,-8.31692 z m 6.44722,3.54598 -1.74075,1.80522 2.38547,0.58025 z"
         style=""
         id="path3032" />
      <path
         d="m 397.3879,536.28097 7.54325,0.58025 0.58025,1.74075 1.74075,8.18796 0,8.70375 -1.1605,1.80522 1.1605,5.22225 0,15.15096 -0.58025,1.74075 0.58025,1.74075 -0.58025,5.28672 -2.90125,1.74075 -8.1235,0 -1.74075,-0.58025 c -1.46137,-2.44994 -2.25652,-5.37268 -2.38547,-8.76822 l -0.58025,-9.92872 0.58025,-1.74075 4.12622,-6.38274 c 1.76224,-1.28942 3.11615,-3.05165 4.06175,-5.28672 l 0.58025,-8.70375 0,-1.74074 -2.90125,2.32099 0.58025,2.90125 -0.58025,1.1605 0,1.1605 -5.28672,0.58025 -0.58025,-10.50897 c 0.85963,-2.75076 2.81528,-4.87834 5.86697,-6.38274 z m 4.642,2.90125 c -0.086,-0.51573 -0.47281,-0.90256 -1.1605,-1.1605 0.17192,0.38688 0.55875,0.77371 1.1605,1.1605 z m 3.4815,19.85743 0,-1.1605 -0.58025,0 z m -6.963,5.8025 -1.1605,9.92871 0.58025,6.38275 2.321,-0.58025 0,-6.963 0.58025,-1.74075 -0.58025,-0.58025 1.1605,-4.70647 z"
         style=""
         id="path3034" />
      <path
         d="m 423.30572,521.45237 c 2.9657,0.42988 4.72794,1.9987 5.28672,4.70647 l -0.58025,11.21816 c -0.043,3.05173 -0.42983,6.01744 -1.1605,8.89716 l 1.74075,7.67219 -0.58025,1.74075 0.58025,5.35119 -0.58025,26.56254 -2.38547,1.1605 -5.28672,-1.74075 -5.28672,1.74075 -1.22497,-2.321 c -1.07454,-3.09466 -1.65479,-6.64063 -1.74075,-10.63791 l 0,-24.24154 0.58025,-8.83269 1.1605,-1.80522 c 1.07453,-1.50431 2.44994,-2.87971 4.12622,-4.12622 l 1.80522,2.38547 c 0.85962,-0.51573 1.63328,-1.31089 2.321,-2.38547 -0.086,-1.89113 -0.47281,-3.86828 -1.1605,-5.93145 0.25788,-2.92267 1.05303,-6.06032 2.38547,-9.41293 z m -3.54597,24.17706 -0.58025,17.14961 0.58025,0 -0.58025,1.80522 0,12.95891 c 0.0859,1.67628 0.6662,3.07318 1.74075,4.19069 0.94558,-2.02012 1.52583,-4.3841 1.74075,-7.09194 -0.7307,-2.79378 -1.31095,-5.95291 -1.74075,-9.47741 l 0,-10.05766 0.58025,-1.1605 c -0.30088,-2.62184 -0.88113,-5.39414 -1.74075,-8.31692 z m 6.44722,3.54598 -1.74075,1.80522 2.38547,0.58025 z"
         style=""
         id="path3036" />
      <path
         d="m 444.71048,521.45237 c 2.96571,0.42988 4.72795,1.9987 5.28672,4.70647 l -0.58025,11.21816 c -0.043,3.05173 -0.42983,6.01744 -1.1605,8.89716 l 1.74075,7.67219 -0.58025,1.74075 0.58025,5.35119 -0.58025,26.56254 -2.38547,1.1605 -5.28672,-1.74075 -5.28671,1.74075 -1.22498,-2.321 c -1.07453,-3.09466 -1.65478,-6.64063 -1.74075,-10.63791 l 0,-24.24154 0.58025,-8.83269 1.1605,-1.80522 c 1.07454,-1.50431 2.44994,-2.87971 4.12622,-4.12622 l 1.80522,2.38547 c 0.85963,-0.51573 1.63329,-1.31089 2.321,-2.38547 -0.086,-1.89113 -0.4728,-3.86828 -1.1605,-5.93145 0.25788,-2.92267 1.05304,-6.06032 2.38547,-9.41293 z m -3.54597,24.17706 -0.58024,17.14961 0.58024,0 -0.58024,1.80522 0,12.95891 c 0.0859,1.67628 0.6662,3.07318 1.74074,4.19069 0.94559,-2.02012 1.52584,-4.3841 1.74075,-7.09194 -0.73069,-2.79378 -1.31094,-5.95291 -1.74075,-9.47741 l 0,-10.05766 0.58025,-1.1605 c -0.30088,-2.62184 -0.88112,-5.39414 -1.74075,-8.31692 z m 6.44722,3.54598 -1.74075,1.80522 2.38547,0.58025 z"
         style=""
         id="path3038" />
      <path
         d="m 454.89709,538.47302 c 2.49292,-0.90256 5.15777,-1.24641 7.99455,-1.03155 l 1.22497,5.15777 1.35392,1.54733 0.0645,2.06311 2.70783,5.28672 0.0645,2.06311 c 0.9026,1.28948 1.74074,2.83681 2.51442,4.642 l -0.51578,2.25653 -2.25653,14.18388 -3.03019,-7.93008 -1.99864,-6.89852 -1.93416,-3.4815 c 0.47279,-0.30084 0.70918,-0.8596 0.70919,-1.67628 l -1.09603,-0.96708 -3.35255,-7.15641 z m 18.3101,-2.57888 c 2.44992,0.90266 4.70644,2.36403 6.76958,4.3841 l -2.321,4.70647 0,2.06311 -1.28945,1.67628 -1.22497,5.8025 -1.28944,1.6118 c -0.12896,1.54736 -0.47282,3.26662 -1.03156,5.15778 l -1.86969,1.41838 -0.25789,4.77095 -2.321,4.77094 0.19342,1.41838 -5.67355,14.63519 -5.15778,-1.1605 -1.6118,-1.1605 1.48286,-6.38274 2.51441,-5.3512 0.0645,-2.06311 2.70783,-8.05902 2.90125,-6.57616 0.70919,-3.9328 c 0.55875,0.086 1.09601,-0.19339 1.6118,-0.83814 l -0.19341,-1.48286 1.93416,-7.60772 z"
         style=""
         id="path3040" />
    </g>
  </g>
</svg>
